{
	"patcher" : 	{
		"fileversion" : 1,
		"appversion" : 		{
			"major" : 5,
			"minor" : 1,
			"revision" : 9
		}
,
		"rect" : [ 520.0, 280.0, 801.0, 316.0 ],
		"bglocked" : 0,
		"defrect" : [ 520.0, 280.0, 801.0, 316.0 ],
		"openrect" : [ 0.0, 0.0, 0.0, 0.0 ],
		"openinpresentation" : 0,
		"default_fontsize" : 12.0,
		"default_fontface" : 0,
		"default_fontname" : "Arial",
		"gridonopen" : 0,
		"gridsize" : [ 15.0, 15.0 ],
		"gridsnaponopen" : 0,
		"toolbarvisible" : 1,
		"boxanimatetime" : 200,
		"imprint" : 0,
		"enablehscroll" : 1,
		"enablevscroll" : 1,
		"devicewidth" : 0.0,
		"boxes" : [ 			{
				"box" : 				{
					"maxclass" : "comment",
					"text" : "tail",
					"fontname" : "Arial",
					"numoutlets" : 0,
					"patching_rect" : [ 510.0, 15.0, 30.0, 20.0 ],
					"fontsize" : 12.0,
					"id" : "obj-43",
					"numinlets" : 1
				}

			}
, 			{
				"box" : 				{
					"maxclass" : "comment",
					"text" : "early",
					"fontname" : "Arial",
					"numoutlets" : 0,
					"patching_rect" : [ 420.0, 15.0, 40.0, 20.0 ],
					"fontsize" : 12.0,
					"id" : "obj-37",
					"numinlets" : 1
				}

			}
, 			{
				"box" : 				{
					"maxclass" : "comment",
					"text" : "revtime",
					"fontname" : "Arial",
					"numoutlets" : 0,
					"patching_rect" : [ 240.0, 15.0, 51.0, 20.0 ],
					"fontsize" : 12.0,
					"id" : "obj-35",
					"numinlets" : 1
				}

			}
, 			{
				"box" : 				{
					"maxclass" : "comment",
					"text" : "dry",
					"fontname" : "Arial",
					"numoutlets" : 0,
					"patching_rect" : [ 330.0, 15.0, 36.0, 20.0 ],
					"fontsize" : 12.0,
					"id" : "obj-28",
					"numinlets" : 1
				}

			}
, 			{
				"box" : 				{
					"maxclass" : "comment",
					"text" : "damping",
					"fontname" : "Arial",
					"numoutlets" : 0,
					"patching_rect" : [ 150.0, 15.0, 60.0, 20.0 ],
					"fontsize" : 12.0,
					"id" : "obj-26",
					"numinlets" : 1
				}

			}
, 			{
				"box" : 				{
					"maxclass" : "comment",
					"text" : "roomsize",
					"fontname" : "Arial",
					"numoutlets" : 0,
					"patching_rect" : [ 60.0, 15.0, 60.0, 20.0 ],
					"fontsize" : 12.0,
					"id" : "obj-18",
					"numinlets" : 1
				}

			}
, 			{
				"box" : 				{
					"maxclass" : "inlet",
					"numoutlets" : 1,
					"patching_rect" : [ 480.0, 15.0, 25.0, 25.0 ],
					"outlettype" : [ "" ],
					"id" : "obj-15",
					"numinlets" : 0,
					"comment" : ""
				}

			}
, 			{
				"box" : 				{
					"maxclass" : "inlet",
					"numoutlets" : 1,
					"patching_rect" : [ 390.0, 15.0, 25.0, 25.0 ],
					"outlettype" : [ "" ],
					"id" : "obj-14",
					"numinlets" : 0,
					"comment" : ""
				}

			}
, 			{
				"box" : 				{
					"maxclass" : "inlet",
					"numoutlets" : 1,
					"patching_rect" : [ 300.0, 15.0, 25.0, 25.0 ],
					"outlettype" : [ "" ],
					"id" : "obj-13",
					"numinlets" : 0,
					"comment" : ""
				}

			}
, 			{
				"box" : 				{
					"maxclass" : "inlet",
					"numoutlets" : 1,
					"patching_rect" : [ 210.0, 15.0, 25.0, 25.0 ],
					"outlettype" : [ "" ],
					"id" : "obj-12",
					"numinlets" : 0,
					"comment" : ""
				}

			}
, 			{
				"box" : 				{
					"maxclass" : "inlet",
					"numoutlets" : 1,
					"patching_rect" : [ 120.0, 15.0, 25.0, 25.0 ],
					"outlettype" : [ "" ],
					"id" : "obj-11",
					"numinlets" : 0,
					"comment" : ""
				}

			}
, 			{
				"box" : 				{
					"maxclass" : "inlet",
					"numoutlets" : 1,
					"patching_rect" : [ 30.0, 15.0, 25.0, 25.0 ],
					"outlettype" : [ "" ],
					"id" : "obj-10",
					"numinlets" : 0,
					"comment" : ""
				}

			}
, 			{
				"box" : 				{
					"maxclass" : "comment",
					"text" : "signal in",
					"fontname" : "Arial",
					"numoutlets" : 0,
					"patching_rect" : [ 600.0, 15.0, 58.0, 20.0 ],
					"fontsize" : 12.0,
					"id" : "obj-8",
					"numinlets" : 1
				}

			}
, 			{
				"box" : 				{
					"maxclass" : "inlet",
					"numoutlets" : 1,
					"patching_rect" : [ 570.0, 15.0, 25.0, 25.0 ],
					"outlettype" : [ "" ],
					"id" : "obj-2",
					"numinlets" : 0,
					"comment" : ""
				}

			}
, 			{
				"box" : 				{
					"maxclass" : "comment",
					"text" : "signal out",
					"fontname" : "Arial",
					"numoutlets" : 0,
					"patching_rect" : [ 600.0, 240.0, 62.0, 20.0 ],
					"fontsize" : 12.0,
					"id" : "obj-3",
					"numinlets" : 1
				}

			}
, 			{
				"box" : 				{
					"maxclass" : "outlet",
					"numoutlets" : 0,
					"patching_rect" : [ 570.0, 240.0, 25.0, 25.0 ],
					"id" : "obj-1",
					"numinlets" : 1,
					"comment" : ""
				}

			}
, 			{
				"box" : 				{
					"maxclass" : "flonum",
					"fontname" : "Arial",
					"numoutlets" : 2,
					"patching_rect" : [ 480.0, 180.0, 50.0, 20.0 ],
					"outlettype" : [ "float", "bang" ],
					"fontsize" : 12.0,
					"id" : "obj-20",
					"numinlets" : 1
				}

			}
, 			{
				"box" : 				{
					"maxclass" : "flonum",
					"fontname" : "Arial",
					"numoutlets" : 2,
					"patching_rect" : [ 300.0, 180.0, 50.0, 20.0 ],
					"outlettype" : [ "float", "bang" ],
					"fontsize" : 12.0,
					"id" : "obj-21",
					"numinlets" : 1
				}

			}
, 			{
				"box" : 				{
					"maxclass" : "flonum",
					"fontname" : "Arial",
					"numoutlets" : 2,
					"patching_rect" : [ 120.0, 180.0, 50.0, 20.0 ],
					"outlettype" : [ "float", "bang" ],
					"fontsize" : 12.0,
					"id" : "obj-22",
					"numinlets" : 1
				}

			}
, 			{
				"box" : 				{
					"maxclass" : "flonum",
					"fontname" : "Arial",
					"numoutlets" : 2,
					"patching_rect" : [ 390.0, 180.0, 50.0, 20.0 ],
					"outlettype" : [ "float", "bang" ],
					"fontsize" : 12.0,
					"id" : "obj-19",
					"numinlets" : 1
				}

			}
, 			{
				"box" : 				{
					"maxclass" : "flonum",
					"fontname" : "Arial",
					"numoutlets" : 2,
					"patching_rect" : [ 210.0, 180.0, 50.0, 20.0 ],
					"outlettype" : [ "float", "bang" ],
					"fontsize" : 12.0,
					"id" : "obj-16",
					"numinlets" : 1
				}

			}
, 			{
				"box" : 				{
					"maxclass" : "flonum",
					"fontname" : "Arial",
					"numoutlets" : 2,
					"patching_rect" : [ 30.0, 180.0, 50.0, 20.0 ],
					"outlettype" : [ "float", "bang" ],
					"fontsize" : 12.0,
					"id" : "obj-4",
					"numinlets" : 1
				}

			}
, 			{
				"box" : 				{
					"maxclass" : "meter~",
					"numoutlets" : 1,
					"patching_rect" : [ 570.0, 210.0, 154.0, 14.0 ],
					"outlettype" : [ "float" ],
					"id" : "obj-54",
					"numinlets" : 1
				}

			}
, 			{
				"box" : 				{
					"maxclass" : "meter~",
					"numoutlets" : 1,
					"patching_rect" : [ 570.0, 150.0, 151.0, 14.0 ],
					"outlettype" : [ "float" ],
					"id" : "obj-53",
					"numinlets" : 1
				}

			}
, 			{
				"box" : 				{
					"maxclass" : "message",
					"text" : "tail $1",
					"fontname" : "Arial",
					"numoutlets" : 1,
					"patching_rect" : [ 480.0, 135.0, 43.0, 18.0 ],
					"outlettype" : [ "" ],
					"fontsize" : 12.0,
					"id" : "obj-49",
					"numinlets" : 2
				}

			}
, 			{
				"box" : 				{
					"maxclass" : "message",
					"text" : "early $1",
					"fontname" : "Arial",
					"numoutlets" : 1,
					"patching_rect" : [ 390.0, 135.0, 53.0, 18.0 ],
					"outlettype" : [ "" ],
					"fontsize" : 12.0,
					"id" : "obj-47",
					"numinlets" : 2
				}

			}
, 			{
				"box" : 				{
					"maxclass" : "message",
					"text" : "dry $1",
					"fontname" : "Arial",
					"numoutlets" : 1,
					"patching_rect" : [ 300.0, 135.0, 44.0, 18.0 ],
					"outlettype" : [ "" ],
					"fontsize" : 12.0,
					"id" : "obj-45",
					"numinlets" : 2
				}

			}
, 			{
				"box" : 				{
					"maxclass" : "message",
					"text" : "revtime $1",
					"fontname" : "Arial",
					"numoutlets" : 1,
					"patching_rect" : [ 210.0, 134.999878, 67.0, 18.0 ],
					"outlettype" : [ "" ],
					"fontsize" : 12.0,
					"id" : "obj-41",
					"numinlets" : 2
				}

			}
, 			{
				"box" : 				{
					"maxclass" : "message",
					"text" : "damping $1",
					"fontname" : "Arial",
					"numoutlets" : 1,
					"patching_rect" : [ 120.0, 134.999878, 73.0, 18.0 ],
					"outlettype" : [ "" ],
					"fontsize" : 12.0,
					"id" : "obj-39",
					"numinlets" : 2
				}

			}
, 			{
				"box" : 				{
					"maxclass" : "slider",
					"numoutlets" : 1,
					"patching_rect" : [ 390.0, 105.0, 83.0, 18.0 ],
					"outlettype" : [ "" ],
					"size" : 91.0,
					"id" : "obj-32",
					"min" : -90.0,
					"numinlets" : 1
				}

			}
, 			{
				"box" : 				{
					"maxclass" : "slider",
					"numoutlets" : 1,
					"patching_rect" : [ 300.0, 105.0, 83.0, 18.0 ],
					"outlettype" : [ "" ],
					"size" : 90.0,
					"id" : "obj-33",
					"floatoutput" : 1,
					"min" : -90.0,
					"numinlets" : 1
				}

			}
, 			{
				"box" : 				{
					"maxclass" : "slider",
					"numoutlets" : 1,
					"patching_rect" : [ 480.0, 105.0, 83.0, 18.0 ],
					"outlettype" : [ "" ],
					"size" : 91.0,
					"id" : "obj-31",
					"min" : -90.0,
					"numinlets" : 1
				}

			}
, 			{
				"box" : 				{
					"maxclass" : "slider",
					"numoutlets" : 1,
					"patching_rect" : [ 210.0, 104.999939, 83.0, 18.0 ],
					"outlettype" : [ "" ],
					"size" : 360.0,
					"id" : "obj-29",
					"floatoutput" : 1,
					"numinlets" : 1
				}

			}
, 			{
				"box" : 				{
					"maxclass" : "slider",
					"numoutlets" : 1,
					"patching_rect" : [ 120.0, 104.999939, 83.0, 18.0 ],
					"outlettype" : [ "" ],
					"size" : 1.0,
					"id" : "obj-25",
					"floatoutput" : 1,
					"numinlets" : 1
				}

			}
, 			{
				"box" : 				{
					"maxclass" : "message",
					"text" : "roomsize $1",
					"fontname" : "Arial",
					"numoutlets" : 1,
					"patching_rect" : [ 30.0, 135.0, 76.0, 18.0 ],
					"outlettype" : [ "" ],
					"fontsize" : 12.0,
					"id" : "obj-24",
					"numinlets" : 2
				}

			}
, 			{
				"box" : 				{
					"maxclass" : "slider",
					"numoutlets" : 1,
					"patching_rect" : [ 30.0, 105.0, 83.0, 18.0 ],
					"outlettype" : [ "" ],
					"size" : 301.0,
					"id" : "obj-7",
					"numinlets" : 1
				}

			}
, 			{
				"box" : 				{
					"maxclass" : "newobj",
					"text" : "gigaverb~",
					"fontname" : "Arial",
					"numoutlets" : 2,
					"patching_rect" : [ 570.0, 105.0, 64.0, 20.0 ],
					"outlettype" : [ "signal", "signal" ],
					"fontsize" : 12.0,
					"id" : "obj-5",
					"numinlets" : 1
				}

			}
, 			{
				"box" : 				{
					"maxclass" : "gain~",
					"numoutlets" : 2,
					"patching_rect" : [ 570.0, 180.0, 155.0, 19.0 ],
					"outlettype" : [ "signal", "int" ],
					"id" : "obj-9",
					"numinlets" : 2
				}

			}
 ],
		"lines" : [ 			{
				"patchline" : 				{
					"source" : [ "obj-15", 0 ],
					"destination" : [ "obj-20", 0 ],
					"hidden" : 1,
					"midpoints" : [  ]
				}

			}
, 			{
				"patchline" : 				{
					"source" : [ "obj-14", 0 ],
					"destination" : [ "obj-19", 0 ],
					"hidden" : 1,
					"midpoints" : [  ]
				}

			}
, 			{
				"patchline" : 				{
					"source" : [ "obj-13", 0 ],
					"destination" : [ "obj-21", 0 ],
					"hidden" : 1,
					"midpoints" : [  ]
				}

			}
, 			{
				"patchline" : 				{
					"source" : [ "obj-12", 0 ],
					"destination" : [ "obj-16", 0 ],
					"hidden" : 1,
					"midpoints" : [  ]
				}

			}
, 			{
				"patchline" : 				{
					"source" : [ "obj-11", 0 ],
					"destination" : [ "obj-22", 0 ],
					"hidden" : 1,
					"midpoints" : [  ]
				}

			}
, 			{
				"patchline" : 				{
					"source" : [ "obj-10", 0 ],
					"destination" : [ "obj-4", 0 ],
					"hidden" : 1,
					"midpoints" : [  ]
				}

			}
, 			{
				"patchline" : 				{
					"source" : [ "obj-2", 0 ],
					"destination" : [ "obj-5", 0 ],
					"hidden" : 1,
					"midpoints" : [  ]
				}

			}
, 			{
				"patchline" : 				{
					"source" : [ "obj-9", 0 ],
					"destination" : [ "obj-54", 0 ],
					"hidden" : 0,
					"midpoints" : [  ]
				}

			}
, 			{
				"patchline" : 				{
					"source" : [ "obj-5", 0 ],
					"destination" : [ "obj-9", 0 ],
					"hidden" : 1,
					"midpoints" : [  ]
				}

			}
, 			{
				"patchline" : 				{
					"source" : [ "obj-45", 0 ],
					"destination" : [ "obj-5", 0 ],
					"hidden" : 1,
					"midpoints" : [ 309.5, 547.499878, 433.0, 547.499878, 433.0, 483.499878, 579.5, 483.499878 ]
				}

			}
, 			{
				"patchline" : 				{
					"source" : [ "obj-47", 0 ],
					"destination" : [ "obj-5", 0 ],
					"hidden" : 1,
					"midpoints" : [ 399.5, 543.499878, 431.0, 543.499878, 431.0, 482.499878, 579.5, 482.499878 ]
				}

			}
, 			{
				"patchline" : 				{
					"source" : [ "obj-49", 0 ],
					"destination" : [ "obj-5", 0 ],
					"hidden" : 1,
					"midpoints" : [ 489.5, 541.499878, 429.0, 541.499878, 429.0, 481.499878, 579.5, 481.499878 ]
				}

			}
, 			{
				"patchline" : 				{
					"source" : [ "obj-31", 0 ],
					"destination" : [ "obj-49", 0 ],
					"hidden" : 1,
					"midpoints" : [  ]
				}

			}
, 			{
				"patchline" : 				{
					"source" : [ "obj-41", 0 ],
					"destination" : [ "obj-5", 0 ],
					"hidden" : 1,
					"midpoints" : [ 219.5, 480.499878, 579.5, 480.499878 ]
				}

			}
, 			{
				"patchline" : 				{
					"source" : [ "obj-39", 0 ],
					"destination" : [ "obj-5", 0 ],
					"hidden" : 1,
					"midpoints" : [ 129.5, 480.499878, 579.5, 480.499878 ]
				}

			}
, 			{
				"patchline" : 				{
					"source" : [ "obj-24", 0 ],
					"destination" : [ "obj-5", 0 ],
					"hidden" : 1,
					"midpoints" : [ 39.5, 480.499878, 579.5, 480.499878 ]
				}

			}
, 			{
				"patchline" : 				{
					"source" : [ "obj-32", 0 ],
					"destination" : [ "obj-47", 0 ],
					"hidden" : 1,
					"midpoints" : [  ]
				}

			}
, 			{
				"patchline" : 				{
					"source" : [ "obj-33", 0 ],
					"destination" : [ "obj-45", 0 ],
					"hidden" : 1,
					"midpoints" : [  ]
				}

			}
, 			{
				"patchline" : 				{
					"source" : [ "obj-29", 0 ],
					"destination" : [ "obj-41", 0 ],
					"hidden" : 1,
					"midpoints" : [  ]
				}

			}
, 			{
				"patchline" : 				{
					"source" : [ "obj-25", 0 ],
					"destination" : [ "obj-39", 0 ],
					"hidden" : 1,
					"midpoints" : [  ]
				}

			}
, 			{
				"patchline" : 				{
					"source" : [ "obj-7", 0 ],
					"destination" : [ "obj-24", 0 ],
					"hidden" : 1,
					"midpoints" : [  ]
				}

			}
, 			{
				"patchline" : 				{
					"source" : [ "obj-7", 0 ],
					"destination" : [ "obj-4", 0 ],
					"hidden" : 1,
					"midpoints" : [  ]
				}

			}
, 			{
				"patchline" : 				{
					"source" : [ "obj-25", 0 ],
					"destination" : [ "obj-22", 0 ],
					"hidden" : 1,
					"midpoints" : [  ]
				}

			}
, 			{
				"patchline" : 				{
					"source" : [ "obj-29", 0 ],
					"destination" : [ "obj-16", 0 ],
					"hidden" : 1,
					"midpoints" : [  ]
				}

			}
, 			{
				"patchline" : 				{
					"source" : [ "obj-33", 0 ],
					"destination" : [ "obj-21", 0 ],
					"hidden" : 1,
					"midpoints" : [  ]
				}

			}
, 			{
				"patchline" : 				{
					"source" : [ "obj-32", 0 ],
					"destination" : [ "obj-19", 0 ],
					"hidden" : 1,
					"midpoints" : [  ]
				}

			}
, 			{
				"patchline" : 				{
					"source" : [ "obj-31", 0 ],
					"destination" : [ "obj-20", 0 ],
					"hidden" : 1,
					"midpoints" : [  ]
				}

			}
, 			{
				"patchline" : 				{
					"source" : [ "obj-5", 0 ],
					"destination" : [ "obj-53", 0 ],
					"hidden" : 0,
					"midpoints" : [  ]
				}

			}
, 			{
				"patchline" : 				{
					"source" : [ "obj-9", 0 ],
					"destination" : [ "obj-1", 0 ],
					"hidden" : 0,
					"midpoints" : [  ]
				}

			}
 ]
	}

}
