{
	"patcher" : 	{
		"fileversion" : 1,
		"appversion" : 		{
			"major" : 5,
			"minor" : 1,
			"revision" : 9
		}
,
		"rect" : [ 25.0, 69.0, 1321.0, 462.0 ],
		"bglocked" : 0,
		"defrect" : [ 25.0, 69.0, 1321.0, 462.0 ],
		"openrect" : [ 0.0, 0.0, 0.0, 0.0 ],
		"openinpresentation" : 0,
		"default_fontsize" : 12.0,
		"default_fontface" : 0,
		"default_fontname" : "Arial",
		"gridonopen" : 0,
		"gridsize" : [ 15.0, 15.0 ],
		"gridsnaponopen" : 0,
		"toolbarvisible" : 1,
		"boxanimatetime" : 200,
		"imprint" : 0,
		"enablehscroll" : 1,
		"enablevscroll" : 1,
		"devicewidth" : 0.0,
		"boxes" : [ 			{
				"box" : 				{
					"maxclass" : "outlet",
					"numoutlets" : 0,
					"patching_rect" : [ 1140.0, 300.0, 25.0, 25.0 ],
					"id" : "obj-12",
					"numinlets" : 1,
					"comment" : ""
				}

			}
, 			{
				"box" : 				{
					"maxclass" : "outlet",
					"numoutlets" : 0,
					"patching_rect" : [ 1005.0, 300.0, 25.0, 25.0 ],
					"id" : "obj-11",
					"numinlets" : 1,
					"comment" : ""
				}

			}
, 			{
				"box" : 				{
					"maxclass" : "outlet",
					"numoutlets" : 0,
					"patching_rect" : [ 870.0, 300.0, 25.0, 25.0 ],
					"id" : "obj-10",
					"numinlets" : 1,
					"comment" : ""
				}

			}
, 			{
				"box" : 				{
					"maxclass" : "outlet",
					"numoutlets" : 0,
					"patching_rect" : [ 735.0, 300.0, 25.0, 25.0 ],
					"id" : "obj-9",
					"numinlets" : 1,
					"comment" : ""
				}

			}
, 			{
				"box" : 				{
					"maxclass" : "outlet",
					"numoutlets" : 0,
					"patching_rect" : [ 600.0, 300.0, 25.0, 25.0 ],
					"id" : "obj-8",
					"numinlets" : 1,
					"comment" : ""
				}

			}
, 			{
				"box" : 				{
					"maxclass" : "outlet",
					"numoutlets" : 0,
					"patching_rect" : [ 465.0, 300.0, 25.0, 25.0 ],
					"id" : "obj-7",
					"numinlets" : 1,
					"comment" : ""
				}

			}
, 			{
				"box" : 				{
					"maxclass" : "outlet",
					"numoutlets" : 0,
					"patching_rect" : [ 330.0, 300.0, 25.0, 25.0 ],
					"id" : "obj-6",
					"numinlets" : 1,
					"comment" : ""
				}

			}
, 			{
				"box" : 				{
					"maxclass" : "outlet",
					"numoutlets" : 0,
					"patching_rect" : [ 195.0, 300.0, 25.0, 25.0 ],
					"id" : "obj-5",
					"numinlets" : 1,
					"comment" : ""
				}

			}
, 			{
				"box" : 				{
					"maxclass" : "outlet",
					"numoutlets" : 0,
					"patching_rect" : [ 75.0, 300.0, 25.0, 25.0 ],
					"id" : "obj-4",
					"numinlets" : 1,
					"comment" : ""
				}

			}
, 			{
				"box" : 				{
					"maxclass" : "comment",
					"text" : "values to control a track",
					"fontname" : "Arial",
					"numoutlets" : 0,
					"patching_rect" : [ 96.0, 20.0, 150.0, 20.0 ],
					"fontsize" : 12.0,
					"id" : "obj-3",
					"numinlets" : 1
				}

			}
, 			{
				"box" : 				{
					"maxclass" : "inlet",
					"numoutlets" : 1,
					"patching_rect" : [ 63.0, 20.0, 25.0, 25.0 ],
					"outlettype" : [ "" ],
					"id" : "obj-1",
					"numinlets" : 0,
					"comment" : ""
				}

			}
, 			{
				"box" : 				{
					"maxclass" : "flonum",
					"fontname" : "Arial",
					"numoutlets" : 2,
					"patching_rect" : [ 1140.0, 255.0, 50.0, 20.0 ],
					"outlettype" : [ "float", "bang" ],
					"fontsize" : 12.0,
					"id" : "obj-83",
					"numinlets" : 1
				}

			}
, 			{
				"box" : 				{
					"maxclass" : "newobj",
					"text" : "map 0. 1. -90. 0.",
					"fontname" : "Arial",
					"numoutlets" : 1,
					"patching_rect" : [ 1140.0, 225.0, 98.0, 20.0 ],
					"outlettype" : [ "" ],
					"fontsize" : 12.0,
					"id" : "obj-84",
					"numinlets" : 5
				}

			}
, 			{
				"box" : 				{
					"maxclass" : "flonum",
					"fontname" : "Arial",
					"numoutlets" : 2,
					"patching_rect" : [ 1005.0, 255.0, 50.0, 20.0 ],
					"outlettype" : [ "float", "bang" ],
					"fontsize" : 12.0,
					"id" : "obj-81",
					"numinlets" : 1
				}

			}
, 			{
				"box" : 				{
					"maxclass" : "newobj",
					"text" : "map 0. 1. -90. 0.",
					"fontname" : "Arial",
					"numoutlets" : 1,
					"patching_rect" : [ 1005.0, 225.0, 98.0, 20.0 ],
					"outlettype" : [ "" ],
					"fontsize" : 12.0,
					"id" : "obj-82",
					"numinlets" : 5
				}

			}
, 			{
				"box" : 				{
					"maxclass" : "flonum",
					"fontname" : "Arial",
					"numoutlets" : 2,
					"patching_rect" : [ 870.0, 255.0, 50.0, 20.0 ],
					"outlettype" : [ "float", "bang" ],
					"fontsize" : 12.0,
					"id" : "obj-79",
					"numinlets" : 1
				}

			}
, 			{
				"box" : 				{
					"maxclass" : "newobj",
					"text" : "map 0. 1. -90. 0.",
					"fontname" : "Arial",
					"numoutlets" : 1,
					"patching_rect" : [ 870.0, 225.0, 98.0, 20.0 ],
					"outlettype" : [ "" ],
					"fontsize" : 12.0,
					"id" : "obj-80",
					"numinlets" : 5
				}

			}
, 			{
				"box" : 				{
					"maxclass" : "flonum",
					"fontname" : "Arial",
					"numoutlets" : 2,
					"patching_rect" : [ 735.0, 255.0, 50.0, 20.0 ],
					"outlettype" : [ "float", "bang" ],
					"fontsize" : 12.0,
					"id" : "obj-77",
					"numinlets" : 1
				}

			}
, 			{
				"box" : 				{
					"maxclass" : "newobj",
					"text" : "map 0. 1. 0. 360.",
					"fontname" : "Arial",
					"numoutlets" : 1,
					"patching_rect" : [ 735.0, 225.0, 101.0, 20.0 ],
					"outlettype" : [ "" ],
					"fontsize" : 12.0,
					"id" : "obj-78",
					"numinlets" : 5
				}

			}
, 			{
				"box" : 				{
					"maxclass" : "flonum",
					"fontname" : "Arial",
					"numoutlets" : 2,
					"patching_rect" : [ 600.0, 255.0, 50.0, 20.0 ],
					"outlettype" : [ "float", "bang" ],
					"fontsize" : 12.0,
					"id" : "obj-75",
					"numinlets" : 1
				}

			}
, 			{
				"box" : 				{
					"maxclass" : "newobj",
					"text" : "map 0. 1. 0. 1.",
					"fontname" : "Arial",
					"numoutlets" : 1,
					"patching_rect" : [ 600.0, 225.0, 87.0, 20.0 ],
					"outlettype" : [ "" ],
					"fontsize" : 12.0,
					"id" : "obj-76",
					"numinlets" : 5
				}

			}
, 			{
				"box" : 				{
					"maxclass" : "flonum",
					"fontname" : "Arial",
					"numoutlets" : 2,
					"patching_rect" : [ 465.0, 255.0, 50.0, 20.0 ],
					"outlettype" : [ "float", "bang" ],
					"fontsize" : 12.0,
					"id" : "obj-73",
					"numinlets" : 1
				}

			}
, 			{
				"box" : 				{
					"maxclass" : "newobj",
					"text" : "map 0. 1. 1 300",
					"fontname" : "Arial",
					"numoutlets" : 1,
					"patching_rect" : [ 465.0, 225.0, 94.0, 20.0 ],
					"outlettype" : [ "" ],
					"fontsize" : 12.0,
					"id" : "obj-74",
					"numinlets" : 5
				}

			}
, 			{
				"box" : 				{
					"maxclass" : "flonum",
					"fontname" : "Arial",
					"numoutlets" : 2,
					"patching_rect" : [ 330.0, 255.0, 50.0, 20.0 ],
					"outlettype" : [ "float", "bang" ],
					"fontsize" : 12.0,
					"id" : "obj-71",
					"numinlets" : 1
				}

			}
, 			{
				"box" : 				{
					"maxclass" : "newobj",
					"text" : "map 0. 1. 0. 1.",
					"fontname" : "Arial",
					"numoutlets" : 1,
					"patching_rect" : [ 330.0, 225.0, 87.0, 20.0 ],
					"outlettype" : [ "" ],
					"fontsize" : 12.0,
					"id" : "obj-72",
					"numinlets" : 5
				}

			}
, 			{
				"box" : 				{
					"maxclass" : "flonum",
					"fontname" : "Arial",
					"numoutlets" : 2,
					"patching_rect" : [ 195.0, 255.0, 50.0, 20.0 ],
					"outlettype" : [ "float", "bang" ],
					"fontsize" : 12.0,
					"id" : "obj-69",
					"numinlets" : 1
				}

			}
, 			{
				"box" : 				{
					"maxclass" : "newobj",
					"text" : "map 0. 1. 0 20000",
					"fontname" : "Arial",
					"numoutlets" : 1,
					"patching_rect" : [ 195.0, 225.0, 107.0, 20.0 ],
					"outlettype" : [ "" ],
					"fontsize" : 12.0,
					"id" : "obj-70",
					"numinlets" : 5
				}

			}
, 			{
				"box" : 				{
					"maxclass" : "flonum",
					"fontname" : "Arial",
					"numoutlets" : 2,
					"patching_rect" : [ 75.0, 255.0, 50.0, 20.0 ],
					"outlettype" : [ "float", "bang" ],
					"fontsize" : 12.0,
					"id" : "obj-68",
					"numinlets" : 1
				}

			}
, 			{
				"box" : 				{
					"maxclass" : "newobj",
					"text" : "map 0. 1. 0 20000",
					"fontname" : "Arial",
					"numoutlets" : 1,
					"patching_rect" : [ 75.0, 225.0, 107.0, 20.0 ],
					"outlettype" : [ "" ],
					"fontsize" : 12.0,
					"id" : "obj-62",
					"numinlets" : 5
				}

			}
, 			{
				"box" : 				{
					"maxclass" : "flonum",
					"fontname" : "Arial",
					"numoutlets" : 2,
					"patching_rect" : [ 1140.0, 195.0, 50.0, 20.0 ],
					"outlettype" : [ "float", "bang" ],
					"fontsize" : 12.0,
					"id" : "obj-456",
					"numinlets" : 1
				}

			}
, 			{
				"box" : 				{
					"maxclass" : "flonum",
					"fontname" : "Arial",
					"numoutlets" : 2,
					"patching_rect" : [ 1005.0, 195.0, 50.0, 20.0 ],
					"outlettype" : [ "float", "bang" ],
					"fontsize" : 12.0,
					"id" : "obj-454",
					"numinlets" : 1
				}

			}
, 			{
				"box" : 				{
					"maxclass" : "flonum",
					"fontname" : "Arial",
					"numoutlets" : 2,
					"patching_rect" : [ 870.0, 195.0, 50.0, 20.0 ],
					"outlettype" : [ "float", "bang" ],
					"fontsize" : 12.0,
					"id" : "obj-452",
					"numinlets" : 1
				}

			}
, 			{
				"box" : 				{
					"maxclass" : "comment",
					"text" : "tail",
					"fontname" : "Arial",
					"numoutlets" : 0,
					"patching_rect" : [ 1155.0, 165.0, 34.500011, 20.0 ],
					"fontsize" : 12.0,
					"id" : "obj-421",
					"numinlets" : 1
				}

			}
, 			{
				"box" : 				{
					"maxclass" : "comment",
					"text" : "early",
					"fontname" : "Arial",
					"numoutlets" : 0,
					"patching_rect" : [ 1020.0, 165.0, 37.800011, 20.0 ],
					"fontsize" : 12.0,
					"id" : "obj-419",
					"numinlets" : 1
				}

			}
, 			{
				"box" : 				{
					"maxclass" : "comment",
					"text" : "dryWet",
					"fontname" : "Arial",
					"numoutlets" : 0,
					"patching_rect" : [ 885.0, 165.0, 52.10001, 20.0 ],
					"fontsize" : 12.0,
					"id" : "obj-417",
					"numinlets" : 1
				}

			}
, 			{
				"box" : 				{
					"maxclass" : "comment",
					"text" : "revTime",
					"fontname" : "Arial",
					"numoutlets" : 0,
					"patching_rect" : [ 750.0, 165.0, 51.000008, 20.0 ],
					"fontsize" : 12.0,
					"id" : "obj-415",
					"numinlets" : 1
				}

			}
, 			{
				"box" : 				{
					"maxclass" : "comment",
					"text" : "damp",
					"fontname" : "Arial",
					"numoutlets" : 0,
					"patching_rect" : [ 615.0, 165.0, 45.500008, 20.0 ],
					"fontsize" : 12.0,
					"id" : "obj-413",
					"numinlets" : 1
				}

			}
, 			{
				"box" : 				{
					"maxclass" : "comment",
					"text" : "roomSize",
					"fontname" : "Arial",
					"numoutlets" : 0,
					"patching_rect" : [ 480.0, 165.0, 63.100006, 20.0 ],
					"fontsize" : 12.0,
					"id" : "obj-411",
					"numinlets" : 1
				}

			}
, 			{
				"box" : 				{
					"maxclass" : "comment",
					"text" : "playSpeed",
					"fontname" : "Arial",
					"numoutlets" : 0,
					"patching_rect" : [ 345.0, 165.0, 66.400009, 20.0 ],
					"fontsize" : 12.0,
					"id" : "obj-409",
					"numinlets" : 1
				}

			}
, 			{
				"box" : 				{
					"maxclass" : "flonum",
					"fontname" : "Arial",
					"numoutlets" : 2,
					"patching_rect" : [ 330.0, 195.0, 64.0, 20.0 ],
					"outlettype" : [ "float", "bang" ],
					"fontsize" : 12.0,
					"id" : "obj-407",
					"numinlets" : 1
				}

			}
, 			{
				"box" : 				{
					"maxclass" : "flonum",
					"fontname" : "Arial",
					"numoutlets" : 2,
					"patching_rect" : [ 735.0, 195.0, 50.0, 20.0 ],
					"outlettype" : [ "float", "bang" ],
					"fontsize" : 12.0,
					"id" : "obj-401",
					"numinlets" : 1
				}

			}
, 			{
				"box" : 				{
					"maxclass" : "flonum",
					"fontname" : "Arial",
					"numoutlets" : 2,
					"patching_rect" : [ 600.0, 195.0, 50.0, 20.0 ],
					"outlettype" : [ "float", "bang" ],
					"fontsize" : 12.0,
					"id" : "obj-399",
					"numinlets" : 1
				}

			}
, 			{
				"box" : 				{
					"maxclass" : "number",
					"fontname" : "Arial",
					"numoutlets" : 2,
					"patching_rect" : [ 465.0, 195.0, 54.399994, 20.0 ],
					"outlettype" : [ "int", "bang" ],
					"fontsize" : 12.0,
					"id" : "obj-397",
					"numinlets" : 1
				}

			}
, 			{
				"box" : 				{
					"maxclass" : "number",
					"fontname" : "Arial",
					"numoutlets" : 2,
					"patching_rect" : [ 195.0, 195.0, 60.449993, 20.0 ],
					"outlettype" : [ "int", "bang" ],
					"fontsize" : 12.0,
					"id" : "obj-396",
					"numinlets" : 1
				}

			}
, 			{
				"box" : 				{
					"maxclass" : "comment",
					"text" : "loopEnd",
					"fontname" : "Arial",
					"numoutlets" : 0,
					"patching_rect" : [ 210.0, 165.0, 58.700008, 20.0 ],
					"fontsize" : 12.0,
					"id" : "obj-395",
					"numinlets" : 1
				}

			}
, 			{
				"box" : 				{
					"maxclass" : "comment",
					"text" : "loopStart",
					"fontname" : "Arial",
					"numoutlets" : 0,
					"patching_rect" : [ 90.0, 165.0, 65.300011, 20.0 ],
					"fontsize" : 12.0,
					"id" : "obj-393",
					"numinlets" : 1
				}

			}
, 			{
				"box" : 				{
					"maxclass" : "number",
					"fontname" : "Arial",
					"numoutlets" : 2,
					"patching_rect" : [ 75.0, 195.0, 54.399994, 20.0 ],
					"outlettype" : [ "int", "bang" ],
					"fontsize" : 12.0,
					"id" : "obj-379",
					"numinlets" : 1
				}

			}
, 			{
				"box" : 				{
					"maxclass" : "newobj",
					"text" : "unpack i i f i f f f f f",
					"fontname" : "Arial",
					"numoutlets" : 9,
					"patching_rect" : [ 60.0, 135.0, 1099.0, 20.0 ],
					"outlettype" : [ "int", "int", "float", "int", "float", "float", "float", "float", "float" ],
					"fontsize" : 12.0,
					"id" : "obj-362",
					"numinlets" : 1
				}

			}
 ],
		"lines" : [ 			{
				"patchline" : 				{
					"source" : [ "obj-83", 0 ],
					"destination" : [ "obj-12", 0 ],
					"hidden" : 0,
					"midpoints" : [  ]
				}

			}
, 			{
				"patchline" : 				{
					"source" : [ "obj-81", 0 ],
					"destination" : [ "obj-11", 0 ],
					"hidden" : 0,
					"midpoints" : [  ]
				}

			}
, 			{
				"patchline" : 				{
					"source" : [ "obj-79", 0 ],
					"destination" : [ "obj-10", 0 ],
					"hidden" : 0,
					"midpoints" : [  ]
				}

			}
, 			{
				"patchline" : 				{
					"source" : [ "obj-77", 0 ],
					"destination" : [ "obj-9", 0 ],
					"hidden" : 0,
					"midpoints" : [  ]
				}

			}
, 			{
				"patchline" : 				{
					"source" : [ "obj-75", 0 ],
					"destination" : [ "obj-8", 0 ],
					"hidden" : 0,
					"midpoints" : [  ]
				}

			}
, 			{
				"patchline" : 				{
					"source" : [ "obj-73", 0 ],
					"destination" : [ "obj-7", 0 ],
					"hidden" : 0,
					"midpoints" : [  ]
				}

			}
, 			{
				"patchline" : 				{
					"source" : [ "obj-71", 0 ],
					"destination" : [ "obj-6", 0 ],
					"hidden" : 0,
					"midpoints" : [  ]
				}

			}
, 			{
				"patchline" : 				{
					"source" : [ "obj-69", 0 ],
					"destination" : [ "obj-5", 0 ],
					"hidden" : 0,
					"midpoints" : [  ]
				}

			}
, 			{
				"patchline" : 				{
					"source" : [ "obj-68", 0 ],
					"destination" : [ "obj-4", 0 ],
					"hidden" : 0,
					"midpoints" : [  ]
				}

			}
, 			{
				"patchline" : 				{
					"source" : [ "obj-1", 0 ],
					"destination" : [ "obj-362", 0 ],
					"hidden" : 0,
					"midpoints" : [  ]
				}

			}
, 			{
				"patchline" : 				{
					"source" : [ "obj-362", 8 ],
					"destination" : [ "obj-456", 0 ],
					"hidden" : 0,
					"midpoints" : [  ]
				}

			}
, 			{
				"patchline" : 				{
					"source" : [ "obj-362", 7 ],
					"destination" : [ "obj-454", 0 ],
					"hidden" : 0,
					"midpoints" : [  ]
				}

			}
, 			{
				"patchline" : 				{
					"source" : [ "obj-362", 6 ],
					"destination" : [ "obj-452", 0 ],
					"hidden" : 0,
					"midpoints" : [  ]
				}

			}
, 			{
				"patchline" : 				{
					"source" : [ "obj-362", 1 ],
					"destination" : [ "obj-396", 0 ],
					"hidden" : 0,
					"midpoints" : [  ]
				}

			}
, 			{
				"patchline" : 				{
					"source" : [ "obj-362", 0 ],
					"destination" : [ "obj-379", 0 ],
					"hidden" : 0,
					"midpoints" : [  ]
				}

			}
, 			{
				"patchline" : 				{
					"source" : [ "obj-362", 2 ],
					"destination" : [ "obj-407", 0 ],
					"hidden" : 0,
					"midpoints" : [  ]
				}

			}
, 			{
				"patchline" : 				{
					"source" : [ "obj-362", 3 ],
					"destination" : [ "obj-397", 0 ],
					"hidden" : 0,
					"midpoints" : [  ]
				}

			}
, 			{
				"patchline" : 				{
					"source" : [ "obj-362", 4 ],
					"destination" : [ "obj-399", 0 ],
					"hidden" : 0,
					"midpoints" : [  ]
				}

			}
, 			{
				"patchline" : 				{
					"source" : [ "obj-362", 5 ],
					"destination" : [ "obj-401", 0 ],
					"hidden" : 0,
					"midpoints" : [  ]
				}

			}
, 			{
				"patchline" : 				{
					"source" : [ "obj-84", 0 ],
					"destination" : [ "obj-83", 0 ],
					"hidden" : 0,
					"midpoints" : [  ]
				}

			}
, 			{
				"patchline" : 				{
					"source" : [ "obj-456", 0 ],
					"destination" : [ "obj-84", 0 ],
					"hidden" : 0,
					"midpoints" : [  ]
				}

			}
, 			{
				"patchline" : 				{
					"source" : [ "obj-82", 0 ],
					"destination" : [ "obj-81", 0 ],
					"hidden" : 0,
					"midpoints" : [  ]
				}

			}
, 			{
				"patchline" : 				{
					"source" : [ "obj-454", 0 ],
					"destination" : [ "obj-82", 0 ],
					"hidden" : 0,
					"midpoints" : [  ]
				}

			}
, 			{
				"patchline" : 				{
					"source" : [ "obj-452", 0 ],
					"destination" : [ "obj-80", 0 ],
					"hidden" : 0,
					"midpoints" : [  ]
				}

			}
, 			{
				"patchline" : 				{
					"source" : [ "obj-80", 0 ],
					"destination" : [ "obj-79", 0 ],
					"hidden" : 0,
					"midpoints" : [  ]
				}

			}
, 			{
				"patchline" : 				{
					"source" : [ "obj-78", 0 ],
					"destination" : [ "obj-77", 0 ],
					"hidden" : 0,
					"midpoints" : [  ]
				}

			}
, 			{
				"patchline" : 				{
					"source" : [ "obj-401", 0 ],
					"destination" : [ "obj-78", 0 ],
					"hidden" : 0,
					"midpoints" : [  ]
				}

			}
, 			{
				"patchline" : 				{
					"source" : [ "obj-76", 0 ],
					"destination" : [ "obj-75", 0 ],
					"hidden" : 0,
					"midpoints" : [  ]
				}

			}
, 			{
				"patchline" : 				{
					"source" : [ "obj-399", 0 ],
					"destination" : [ "obj-76", 0 ],
					"hidden" : 0,
					"midpoints" : [  ]
				}

			}
, 			{
				"patchline" : 				{
					"source" : [ "obj-74", 0 ],
					"destination" : [ "obj-73", 0 ],
					"hidden" : 0,
					"midpoints" : [  ]
				}

			}
, 			{
				"patchline" : 				{
					"source" : [ "obj-397", 0 ],
					"destination" : [ "obj-74", 0 ],
					"hidden" : 0,
					"midpoints" : [  ]
				}

			}
, 			{
				"patchline" : 				{
					"source" : [ "obj-72", 0 ],
					"destination" : [ "obj-71", 0 ],
					"hidden" : 0,
					"midpoints" : [  ]
				}

			}
, 			{
				"patchline" : 				{
					"source" : [ "obj-407", 0 ],
					"destination" : [ "obj-72", 0 ],
					"hidden" : 0,
					"midpoints" : [  ]
				}

			}
, 			{
				"patchline" : 				{
					"source" : [ "obj-70", 0 ],
					"destination" : [ "obj-69", 0 ],
					"hidden" : 0,
					"midpoints" : [  ]
				}

			}
, 			{
				"patchline" : 				{
					"source" : [ "obj-396", 0 ],
					"destination" : [ "obj-70", 0 ],
					"hidden" : 0,
					"midpoints" : [  ]
				}

			}
, 			{
				"patchline" : 				{
					"source" : [ "obj-62", 0 ],
					"destination" : [ "obj-68", 0 ],
					"hidden" : 0,
					"midpoints" : [  ]
				}

			}
, 			{
				"patchline" : 				{
					"source" : [ "obj-379", 0 ],
					"destination" : [ "obj-62", 0 ],
					"hidden" : 0,
					"midpoints" : [  ]
				}

			}
 ]
	}

}
