{
	"patcher" : 	{
		"fileversion" : 1,
		"appversion" : 		{
			"major" : 5,
			"minor" : 1,
			"revision" : 9
		}
,
		"rect" : [ 215.0, 104.0, 1085.0, 720.0 ],
		"bglocked" : 0,
		"defrect" : [ 215.0, 104.0, 1085.0, 720.0 ],
		"openrect" : [ 0.0, 0.0, 0.0, 0.0 ],
		"openinpresentation" : 0,
		"default_fontsize" : 12.0,
		"default_fontface" : 0,
		"default_fontname" : "Arial",
		"gridonopen" : 0,
		"gridsize" : [ 15.0, 15.0 ],
		"gridsnaponopen" : 0,
		"toolbarvisible" : 1,
		"boxanimatetime" : 200,
		"imprint" : 0,
		"enablehscroll" : 1,
		"enablevscroll" : 1,
		"devicewidth" : 0.0,
		"boxes" : [ 			{
				"box" : 				{
					"maxclass" : "comment",
					"text" : "<--- click here for circular panning",
					"linecount" : 2,
					"id" : "obj-25",
					"fontname" : "Arial",
					"numinlets" : 1,
					"fontsize" : 12.0,
					"patching_rect" : [ 213.0, 186.0, 150.0, 34.0 ],
					"numoutlets" : 0
				}

			}
, 			{
				"box" : 				{
					"maxclass" : "newobj",
					"text" : "p",
					"id" : "obj-23",
					"fontname" : "Arial",
					"numinlets" : 1,
					"fontsize" : 12.0,
					"patching_rect" : [ 171.0, 211.0, 19.0, 20.0 ],
					"numoutlets" : 1,
					"outlettype" : [ "" ],
					"patcher" : 					{
						"fileversion" : 1,
						"appversion" : 						{
							"major" : 5,
							"minor" : 1,
							"revision" : 9
						}
,
						"rect" : [ 573.0, 184.0, 640.0, 480.0 ],
						"bglocked" : 0,
						"defrect" : [ 573.0, 184.0, 640.0, 480.0 ],
						"openrect" : [ 0.0, 0.0, 0.0, 0.0 ],
						"openinpresentation" : 0,
						"default_fontsize" : 12.0,
						"default_fontface" : 0,
						"default_fontname" : "Arial",
						"gridonopen" : 0,
						"gridsize" : [ 15.0, 15.0 ],
						"gridsnaponopen" : 0,
						"toolbarvisible" : 1,
						"boxanimatetime" : 200,
						"imprint" : 0,
						"enablehscroll" : 1,
						"enablevscroll" : 1,
						"devicewidth" : 0.0,
						"boxes" : [ 							{
								"box" : 								{
									"maxclass" : "newobj",
									"text" : "metro 10",
									"id" : "obj-17",
									"fontname" : "Arial",
									"numinlets" : 2,
									"fontsize" : 12.0,
									"patching_rect" : [ 78.0, 100.0, 58.0, 20.0 ],
									"numoutlets" : 1,
									"outlettype" : [ "bang" ]
								}

							}
, 							{
								"box" : 								{
									"maxclass" : "newobj",
									"text" : "sprintf script move panning %ld %ld",
									"id" : "obj-14",
									"fontname" : "Arial",
									"numinlets" : 2,
									"fontsize" : 12.0,
									"patching_rect" : [ 50.0, 374.0, 201.0, 20.0 ],
									"numoutlets" : 1,
									"outlettype" : [ "" ]
								}

							}
, 							{
								"box" : 								{
									"maxclass" : "newobj",
									"text" : "scale -1 1 0 400",
									"id" : "obj-13",
									"fontname" : "Arial",
									"numinlets" : 6,
									"fontsize" : 12.0,
									"patching_rect" : [ 81.0, 309.0, 96.0, 20.0 ],
									"numoutlets" : 1,
									"outlettype" : [ "" ]
								}

							}
, 							{
								"box" : 								{
									"maxclass" : "newobj",
									"text" : "scale -1 1 0 400",
									"id" : "obj-12",
									"fontname" : "Arial",
									"numinlets" : 6,
									"fontsize" : 12.0,
									"patching_rect" : [ 50.0, 338.0, 96.0, 20.0 ],
									"numoutlets" : 1,
									"outlettype" : [ "" ]
								}

							}
, 							{
								"box" : 								{
									"maxclass" : "newobj",
									"text" : "cos",
									"id" : "obj-8",
									"fontname" : "Arial",
									"numinlets" : 1,
									"fontsize" : 12.0,
									"patching_rect" : [ 102.0, 277.0, 29.0, 20.0 ],
									"numoutlets" : 1,
									"outlettype" : [ "float" ]
								}

							}
, 							{
								"box" : 								{
									"maxclass" : "newobj",
									"text" : "counter",
									"id" : "obj-5",
									"fontname" : "Arial",
									"numinlets" : 5,
									"fontsize" : 12.0,
									"patching_rect" : [ 77.0, 146.0, 73.0, 20.0 ],
									"numoutlets" : 4,
									"outlettype" : [ "int", "", "", "int" ]
								}

							}
, 							{
								"box" : 								{
									"maxclass" : "newobj",
									"text" : "/ 140.",
									"id" : "obj-4",
									"fontname" : "Arial",
									"numinlets" : 2,
									"fontsize" : 12.0,
									"patching_rect" : [ 71.0, 180.0, 41.0, 20.0 ],
									"numoutlets" : 1,
									"outlettype" : [ "float" ]
								}

							}
, 							{
								"box" : 								{
									"maxclass" : "newobj",
									"text" : "* 6.28",
									"id" : "obj-3",
									"fontname" : "Arial",
									"numinlets" : 2,
									"fontsize" : 12.0,
									"patching_rect" : [ 61.0, 232.0, 42.0, 20.0 ],
									"numoutlets" : 1,
									"outlettype" : [ "float" ]
								}

							}
, 							{
								"box" : 								{
									"maxclass" : "newobj",
									"text" : "sin",
									"id" : "obj-2",
									"fontname" : "Arial",
									"numinlets" : 1,
									"fontsize" : 12.0,
									"patching_rect" : [ 59.0, 277.0, 26.0, 20.0 ],
									"numoutlets" : 1,
									"outlettype" : [ "float" ]
								}

							}
, 							{
								"box" : 								{
									"maxclass" : "inlet",
									"id" : "obj-21",
									"numinlets" : 0,
									"patching_rect" : [ 78.0, 40.0, 25.0, 25.0 ],
									"numoutlets" : 1,
									"outlettype" : [ "int" ],
									"comment" : ""
								}

							}
, 							{
								"box" : 								{
									"maxclass" : "outlet",
									"id" : "obj-22",
									"numinlets" : 1,
									"patching_rect" : [ 50.0, 454.0, 25.0, 25.0 ],
									"numoutlets" : 0,
									"comment" : ""
								}

							}
 ],
						"lines" : [ 							{
								"patchline" : 								{
									"source" : [ "obj-14", 0 ],
									"destination" : [ "obj-22", 0 ],
									"hidden" : 0,
									"midpoints" : [  ]
								}

							}
, 							{
								"patchline" : 								{
									"source" : [ "obj-21", 0 ],
									"destination" : [ "obj-17", 0 ],
									"hidden" : 0,
									"midpoints" : [  ]
								}

							}
, 							{
								"patchline" : 								{
									"source" : [ "obj-4", 0 ],
									"destination" : [ "obj-3", 0 ],
									"hidden" : 0,
									"midpoints" : [  ]
								}

							}
, 							{
								"patchline" : 								{
									"source" : [ "obj-5", 0 ],
									"destination" : [ "obj-4", 0 ],
									"hidden" : 0,
									"midpoints" : [  ]
								}

							}
, 							{
								"patchline" : 								{
									"source" : [ "obj-17", 0 ],
									"destination" : [ "obj-5", 0 ],
									"hidden" : 0,
									"midpoints" : [  ]
								}

							}
, 							{
								"patchline" : 								{
									"source" : [ "obj-3", 0 ],
									"destination" : [ "obj-8", 0 ],
									"hidden" : 0,
									"midpoints" : [  ]
								}

							}
, 							{
								"patchline" : 								{
									"source" : [ "obj-3", 0 ],
									"destination" : [ "obj-2", 0 ],
									"hidden" : 0,
									"midpoints" : [  ]
								}

							}
, 							{
								"patchline" : 								{
									"source" : [ "obj-2", 0 ],
									"destination" : [ "obj-12", 0 ],
									"hidden" : 0,
									"midpoints" : [  ]
								}

							}
, 							{
								"patchline" : 								{
									"source" : [ "obj-12", 0 ],
									"destination" : [ "obj-14", 0 ],
									"hidden" : 0,
									"midpoints" : [  ]
								}

							}
, 							{
								"patchline" : 								{
									"source" : [ "obj-8", 0 ],
									"destination" : [ "obj-13", 0 ],
									"hidden" : 0,
									"midpoints" : [  ]
								}

							}
, 							{
								"patchline" : 								{
									"source" : [ "obj-13", 0 ],
									"destination" : [ "obj-14", 1 ],
									"hidden" : 0,
									"midpoints" : [  ]
								}

							}
 ]
					}
,
					"saved_object_attributes" : 					{
						"fontname" : "Arial",
						"globalpatchername" : "",
						"default_fontface" : 0,
						"fontface" : 0,
						"fontsize" : 12.0,
						"default_fontname" : "Arial",
						"default_fontsize" : 12.0
					}

				}

			}
, 			{
				"box" : 				{
					"maxclass" : "newobj",
					"text" : "thispatcher",
					"id" : "obj-20",
					"fontname" : "Arial",
					"numinlets" : 1,
					"fontsize" : 12.0,
					"patching_rect" : [ 171.0, 237.0, 69.0, 20.0 ],
					"numoutlets" : 2,
					"outlettype" : [ "", "" ],
					"save" : [ "#N", "thispatcher", ";", "#Q", "end", ";" ]
				}

			}
, 			{
				"box" : 				{
					"maxclass" : "toggle",
					"id" : "obj-19",
					"numinlets" : 1,
					"patching_rect" : [ 171.0, 179.0, 20.0, 20.0 ],
					"numoutlets" : 1,
					"outlettype" : [ "int" ]
				}

			}
, 			{
				"box" : 				{
					"maxclass" : "newobj",
					"varname" : "panning",
					"text" : "pan2",
					"id" : "obj-1",
					"fontname" : "Arial",
					"numinlets" : 4,
					"fontsize" : 12.0,
					"patching_rect" : [ 364.0, 82.0, 59.5, 20.0 ],
					"numoutlets" : 2,
					"outlettype" : [ "signal", "signal" ]
				}

			}
 ],
		"lines" : [ 			{
				"patchline" : 				{
					"source" : [ "obj-23", 0 ],
					"destination" : [ "obj-20", 0 ],
					"hidden" : 0,
					"midpoints" : [  ]
				}

			}
, 			{
				"patchline" : 				{
					"source" : [ "obj-19", 0 ],
					"destination" : [ "obj-23", 0 ],
					"hidden" : 0,
					"midpoints" : [  ]
				}

			}
 ]
	}

}
